<svg xmlns="http://www.w3.org/2000/svg" viewBox="0 0 100 100" preserveAspectRatio="xMidYMid" width="195" height="195" style="shape-rendering: auto; display: block; background: rgb(255, 255, 255);" xmlns:xlink="http://www.w3.org/1999/xlink"><g><g transform="translate(50 50)">
<g>
<animateTransform repeatCount="indefinite" dur="0.1579778830963665s" keyTimes="0;1" values="0;45" type="rotate" attributeName="transform"></animateTransform><path fill="#33d81b" d="M29.047375096555626 -7.5 L37.047375096555626 -7.5 L37.047375096555626 7.5 L29.047375096555626 7.5 A30 30 0 0 1 25.842896765342836 15.236295047544623 L25.842896765342836 15.236295047544623 L31.499751014835216 20.893149297037002 L20.893149297037006 31.499751014835216 L15.236295047544626 25.842896765342836 A30 30 0 0 1 7.5 29.047375096555626 L7.5 29.047375096555626 L7.500000000000001 37.047375096555626 L-7.499999999999996 37.047375096555626 L-7.4999999999999964 29.047375096555626 A30 30 0 0 1 -15.236295047544617 25.84289676534284 L-15.236295047544617 25.84289676534284 L-20.893149297037 31.49975101483522 L-31.499751014835216 20.893149297037002 L-25.842896765342836 15.23629504754462 A30 30 0 0 1 -29.047375096555623 7.500000000000008 L-29.047375096555623 7.500000000000008 L-37.047375096555626 7.500000000000009 L-37.047375096555626 -7.500000000000001 L-29.047375096555626 -7.500000000000002 A30 30 0 0 1 -25.842896765342843 -15.236295047544614 L-25.842896765342843 -15.236295047544614 L-31.499751014835226 -20.89314929703699 L-20.893149297037006 -31.499751014835216 L-15.236295047544623 -25.842896765342836 A30 30 0 0 1 -7.50000000000001 -29.047375096555623 L-7.50000000000001 -29.047375096555623 L-7.5000000000000115 -37.047375096555626 L7.499999999999997 -37.047375096555626 L7.499999999999999 -29.047375096555626 A30 30 0 0 1 15.236295047544614 -25.842896765342843 L15.236295047544614 -25.842896765342843 L20.89314929703699 -31.499751014835226 L31.499751014835216 -20.893149297037006 L25.842896765342836 -15.236295047544623 A30 30 0 0 1 29.047375096555623 -7.5000000000000115 M0 -20A20 20 0 1 0 0 20 A20 20 0 1 0 0 -20"></path></g></g><g></g></g><!-- [ldio] generated by https://loading.io --></svg>